<svg version="1.1" id="Layer_1" xmlns="http://www.w3.org/2000/svg" xmlns:xlink="http://www.w3.org/1999/xlink" x="0px" y="0px"
	 width="100%" viewBox="0 0 512 512" enable-background="new 0 0 512 512" xml:space="preserve">
<path fill="#FEFFFF" opacity="1.000000" stroke="none" 
	d="
M1.000000,134.000000 
	C1.000000,89.333336 1.000000,45.166668 1.000000,1.000000 
	C171.666672,1.000000 342.333344,1.000000 513.000000,1.000000 
	C513.000000,171.666672 513.000000,342.333344 513.000000,513.000000 
	C342.333344,513.000000 171.666672,513.000000 1.000000,513.000000 
	C1.000000,386.833344 1.000000,260.666656 1.000000,134.000000 
M220.842255,23.371515 
	C222.578125,24.673891 227.338333,22.648815 226.026352,26.741522 
	C223.883392,28.337193 222.466232,29.392433 221.049072,30.447687 
	C222.606644,31.347870 224.164215,32.248055 225.498550,33.019218 
	C226.174911,35.400444 226.834152,37.721401 226.655945,40.373631 
	C224.375763,42.807156 224.139633,48.515774 218.305618,45.328835 
	C218.210846,45.072811 218.139099,44.552547 217.861572,44.189682 
	C216.984543,43.043018 216.030487,41.955284 215.106216,40.844765 
	C214.463013,42.175144 213.385849,43.467251 213.264450,44.843658 
	C212.988602,47.971027 213.044617,51.149128 213.255981,54.287060 
	C213.336456,55.481750 214.137451,57.587200 214.737305,57.633633 
	C218.979309,57.962009 223.340637,58.328514 227.457123,57.566212 
	C228.461411,57.380234 229.271667,53.014050 229.150818,50.621399 
	C228.971146,47.064491 227.883118,43.553467 227.895645,39.327888 
	C228.786774,38.734867 230.432846,38.167004 230.453583,37.544991 
	C230.689407,30.466608 230.732162,23.379250 230.640900,16.296679 
	C230.632309,15.630801 229.265472,14.372998 228.698227,14.462377 
	C227.779663,14.607117 226.695862,15.482152 226.246887,16.343393 
	C225.768005,17.261972 225.944992,18.522469 225.815216,19.841345 
	C223.748337,20.063354 221.860886,20.266088 219.208588,20.044384 
	C217.294662,19.917597 215.380737,19.790812 214.759720,19.749672 
	C213.114044,17.187010 212.088364,15.589791 211.062668,13.992573 
	C210.013199,15.761836 208.963730,17.531099 207.613449,19.807482 
	C207.503723,19.816477 206.685959,19.798077 205.907913,19.964981 
	C204.255646,20.319420 202.624084,20.770306 200.984024,21.181646 
	C201.838562,22.231867 202.841049,23.200903 203.481750,24.368481 
	C203.777283,24.907040 203.338226,25.831614 203.278809,26.584837 
	C202.901550,31.368250 206.087387,34.904270 210.849808,35.003117 
	C215.859146,35.107090 219.048050,31.574429 218.780426,26.475716 
	C218.731598,25.545387 219.557220,24.569160 220.842255,23.371515 
M97.752617,93.722771 
	C103.550514,94.888298 109.348404,96.053833 116.413094,97.474022 
	C114.400574,100.082535 112.965149,102.843376 110.743217,104.621262 
	C106.999657,107.616684 102.765373,110.001259 98.722298,112.619308 
	C93.536697,115.977188 92.137970,120.551147 95.088638,124.593147 
	C98.226494,128.891556 103.253281,129.250732 108.153862,125.405075 
	C111.686584,122.632820 115.122993,119.737167 118.584305,116.874733 
	C123.503525,112.806633 124.698875,112.824966 129.698532,117.049271 
	C133.130783,119.949242 136.455734,122.998512 140.065231,125.660202 
	C143.728867,128.361816 148.995468,127.375870 151.621231,123.874359 
	C154.222229,120.405884 153.458572,115.956306 149.412338,113.029839 
	C145.512741,110.209427 141.343140,107.765259 137.361542,105.053902 
	C135.738678,103.948769 134.041611,102.774155 132.864868,101.254402 
	C132.067368,100.224449 131.709610,98.453934 131.971268,97.182594 
	C132.091522,96.598251 134.153732,96.189339 135.364365,96.101669 
	C137.683578,95.933731 140.024063,96.084564 142.354752,96.045410 
	C148.181274,95.947548 150.888321,93.653992 150.977432,88.788094 
	C151.073563,83.539536 148.311539,80.885712 142.469894,80.861900 
	C129.980789,80.810989 117.491249,80.816681 105.002060,80.856300 
	C97.071060,80.881462 94.216125,85.429710 97.752617,93.722771 
M240.027145,408.273163 
	C241.673279,420.708893 253.171814,429.048401 265.562103,426.792816 
	C278.647064,424.410767 285.229065,413.601776 282.108704,399.235321 
	C282.688019,399.058319 283.291168,398.874725 283.893921,398.689789 
	C287.977814,397.436768 289.921631,394.659821 289.390350,390.434265 
	C288.852020,386.152771 285.786163,384.758087 281.939606,384.555664 
	C280.112488,384.459564 278.277802,384.496124 276.446503,384.492249 
	C269.192413,384.476868 269.192444,384.479736 268.977844,377.131348 
	C268.813812,371.514526 265.182892,368.228210 260.068268,369.067352 
	C256.037476,369.728699 253.836166,372.961517 254.109390,379.093536 
	C254.295639,383.273651 252.886322,384.845978 248.740189,384.544617 
	C245.767899,384.328552 242.723450,384.371368 239.771973,384.760071 
	C234.179703,385.496613 231.550385,391.726257 235.114471,396.013641 
	C236.490051,397.668365 238.840714,398.512512 240.719299,399.708221 
	C240.495010,402.187805 240.259247,404.794128 240.027145,408.273163 
M309.256409,431.067078 
	C309.271973,426.571106 309.284424,422.075134 309.304047,417.579163 
	C309.319122,414.124512 309.188507,410.715149 314.290588,410.838165 
	C319.012360,410.952026 318.973083,414.066620 318.948883,417.389954 
	C318.917328,421.719482 318.876190,426.050751 318.961304,430.378876 
	C319.063019,435.551575 321.472687,438.167938 325.961517,438.182739 
	C330.438751,438.197510 332.952667,435.556580 332.975311,430.401306 
	C333.041870,415.247375 333.039185,400.092834 332.977753,384.938873 
	C332.957794,380.018738 330.148712,377.084076 325.863373,377.145142 
	C321.609924,377.205780 319.076569,380.120483 318.951965,385.184357 
	C318.874176,388.346069 319.416290,391.651093 318.633789,394.615509 
	C318.218475,396.188721 315.651886,397.983032 313.904572,398.157684 
	C312.584961,398.289581 310.089233,396.219788 309.762634,394.761353 
	C309.049286,391.575928 309.432678,388.153534 309.278900,384.832062 
	C309.045197,379.784271 306.838074,377.282928 302.613892,377.148834 
	C298.249359,377.010284 295.243958,379.799072 295.201202,384.722717 
	C295.069550,399.875732 295.108612,415.030823 295.179901,430.184662 
	C295.199188,434.287872 297.038055,437.432465 301.412079,437.900787 
	C305.615479,438.350830 308.437714,436.356659 309.256409,431.067078 
M293.512207,140.404755 
	C291.680695,140.404556 289.849182,140.408066 288.017670,140.403534 
	C277.922241,140.378616 274.279877,135.907593 276.256165,125.968979 
	C277.408508,120.173958 278.977081,118.792015 285.003906,118.690674 
	C290.829834,118.592705 296.661377,118.777512 302.485352,118.632721 
	C309.540527,118.457329 312.089752,115.814659 312.126007,108.927589 
	C312.158447,102.767281 312.203735,96.605415 312.103424,90.446510 
	C312.010651,84.749046 309.234558,82.008377 303.436981,81.958817 
	C293.614166,81.874832 283.789398,82.002090 273.967102,81.892822 
	C270.918213,81.858910 268.311462,82.588234 268.348206,85.930504 
	C268.384491,89.228142 271.038269,90.024490 274.042725,89.992142 
	C281.367859,89.913269 288.694519,89.987602 296.020416,89.961174 
	C299.890259,89.947220 302.489319,91.654106 303.015869,95.558090 
	C303.411255,98.489433 303.535919,101.508652 303.331635,104.457611 
	C303.015350,109.023750 300.430267,111.189835 295.714783,111.060135 
	C289.725433,110.895393 283.724579,110.902382 277.734833,111.063507 
	C271.430847,111.233093 267.943207,114.873940 267.895691,121.076187 
	C267.848511,127.236328 267.833832,133.397675 267.901581,139.557449 
	C267.960968,144.957642 270.719696,148.133652 276.035706,148.229889 
	C287.020935,148.428711 298.016968,148.460526 308.995514,148.129044 
	C310.621338,148.079941 312.176147,145.677231 313.763794,144.363419 
	C312.172760,143.049393 310.685791,140.790787 308.970825,140.601898 
	C304.199677,140.076340 299.333893,140.410385 293.512207,140.404755 
M294.626892,482.099579 
	C296.206421,482.595490 297.759827,483.207794 299.369537,483.569244 
	C314.973724,487.073090 330.314178,475.109680 328.862854,460.602478 
	C327.767639,449.654724 319.344879,441.421722 307.877441,440.089752 
	C296.495819,438.767731 285.131622,445.444122 282.050262,455.263062 
	C278.696747,465.949219 283.105743,475.839661 294.626892,482.099579 
M299.240173,278.740265 
	C296.686737,275.203705 293.258087,273.983307 289.193542,275.470856 
	C285.005951,277.003448 283.657104,280.366669 284.039978,284.643066 
	C284.674469,291.730316 281.381683,297.170410 276.396912,301.686798 
	C272.957062,304.803436 269.211700,307.585022 265.577148,310.484100 
	C260.833984,314.267456 259.905121,318.620911 263.070770,322.429535 
	C266.540680,326.604218 272.438629,326.737305 276.649261,322.633392 
	C280.219879,319.153259 283.598724,315.473450 287.222260,312.051239 
	C291.573853,307.941406 293.931000,307.981812 298.254425,312.204498 
	C301.343506,315.221588 304.166687,318.509155 307.211029,321.574219 
	C311.630768,326.024139 316.643372,326.064880 320.062378,321.794403 
	C323.450684,317.562286 322.452789,312.668884 317.484589,309.031982 
	C314.673645,306.974243 311.875488,304.898590 309.093933,302.801331 
	C302.799927,298.055725 299.714325,291.792816 300.080170,283.853149 
	C300.148071,282.379608 299.865173,280.889954 299.240173,278.740265 
M281.581360,226.649536 
	C288.695312,226.417953 295.810577,226.221100 302.922791,225.944580 
	C309.446228,225.690964 311.899536,223.162628 311.938477,216.704742 
	C311.973572,210.878250 311.988403,205.050980 311.932343,199.224808 
	C311.876373,193.407608 309.294006,190.373001 303.601929,190.239838 
	C293.951508,190.014069 284.285370,189.992706 274.643250,190.352417 
	C273.070282,190.411118 270.662018,192.642426 270.265686,194.266342 
	C269.566101,197.132797 271.889771,198.184341 274.626404,198.163879 
	C280.286285,198.121552 285.946747,198.147629 291.606964,198.158173 
	C301.879883,198.177307 304.891541,201.874939 303.084900,212.172531 
	C302.423157,215.944229 300.483093,218.148712 296.413757,218.127151 
	C290.920959,218.098038 285.425079,218.068741 279.935242,218.216171 
	C272.901215,218.405090 269.170990,222.165878 269.076965,229.068924 
	C269.002167,234.561630 268.957275,240.058792 269.091675,245.549255 
	C269.241882,251.685837 272.662201,254.944870 278.823395,254.971863 
	C288.312408,255.013443 297.801727,254.990173 307.290924,254.979263 
	C309.948334,254.976212 312.979675,255.423477 313.035095,251.366135 
	C313.089142,247.406845 310.394653,246.939194 307.281525,246.956055 
	C300.123230,246.994827 292.948944,247.228439 285.815094,246.807632 
	C283.539948,246.673416 280.046173,245.228256 279.399323,243.517395 
	C277.333618,238.053741 276.577454,232.207733 281.581360,226.649536 
M415.513336,314.641541 
	C421.900726,325.679535 433.999664,329.847778 444.946594,324.781799 
	C456.496338,319.436859 459.060883,309.794220 453.215973,292.483612 
	C455.178619,292.483612 456.980896,292.562958 458.773407,292.464478 
	C461.279846,292.326752 463.974213,291.563690 463.125366,288.539307 
	C462.671448,286.921967 460.248505,285.003662 458.506805,284.770599 
	C454.254669,284.201538 449.880188,284.596924 445.557953,284.486664 
	C441.593079,284.385498 439.404327,282.502960 439.574799,278.272705 
	C439.675049,275.784637 440.046204,273.115509 439.306427,270.850952 
	C438.785431,269.256195 436.546082,267.135742 435.173370,267.205536 
	C433.739624,267.278351 431.876404,269.474274 431.209930,271.144653 
	C430.522186,272.868286 431.055023,275.076691 431.043884,277.072937 
	C431.010956,282.976562 429.730682,284.362793 423.780457,284.548462 
	C419.293060,284.688538 414.766022,284.341644 410.329407,284.848419 
	C409.006165,284.999512 407.044006,287.272430 406.999512,288.626587 
	C406.959015,289.858795 408.928955,291.883942 410.361115,292.271301 
	C412.642792,292.888428 415.213684,292.436188 418.583282,292.436188 
	C413.672699,299.631470 412.455963,306.551208 415.513336,314.641541 
M323.931183,341.378632 
	C318.573303,340.755798 313.229553,339.843506 307.854095,339.581879 
	C300.790192,339.238068 300.560547,338.912018 299.890076,331.930389 
	C299.635468,329.279083 298.239319,325.891388 296.214722,324.420807 
	C290.944244,320.592529 284.203796,324.569153 283.989532,331.151794 
	C283.733032,339.032410 283.259125,339.489929 275.303528,339.510345 
	C272.306152,339.518066 269.306458,339.443176 266.311859,339.536102 
	C260.496368,339.716461 257.151337,342.563354 257.171661,347.191986 
	C257.191528,351.717560 260.830139,354.899109 266.373596,354.918823 
	C283.358612,354.979218 300.344391,355.011414 317.329010,354.911377 
	C325.584991,354.862732 328.755859,348.943390 323.931183,341.378632 
M67.747574,212.087601 
	C66.858765,210.291382 66.366096,208.078232 65.002037,206.782227 
	C61.754578,203.696777 57.767689,201.356064 54.698910,198.126038 
	C51.905682,195.186020 49.577297,191.653717 47.694622,188.043228 
	C45.943653,184.685318 47.918190,182.555206 51.410030,182.270279 
	C54.720203,182.000153 58.069130,182.142548 61.399368,182.199646 
	C64.291611,182.249237 66.953453,181.983322 66.938248,178.208145 
	C66.923553,174.557220 64.402588,174.055374 61.446972,174.063110 
	C47.954346,174.098389 34.461567,174.077881 20.968843,174.077469 
	C20.802267,174.077469 20.635592,174.082138 20.469128,174.078003 
	C17.511509,174.004639 15.512801,175.242676 15.598021,178.376709 
	C15.676100,181.248154 17.556450,182.324371 20.339090,182.204407 
	C22.833040,182.096878 25.371002,181.924698 27.823774,182.260895 
	C30.152277,182.580078 33.809967,182.966690 34.340942,184.320633 
	C35.115425,186.295441 34.414566,189.885513 32.938763,191.517181 
	C27.961861,197.019608 22.520124,202.138016 16.936104,207.038620 
	C14.369018,209.291550 12.292489,211.395889 14.941569,214.392014 
	C17.413424,217.187683 20.296515,216.184662 22.804529,213.826645 
	C26.443838,210.404999 30.107580,207.008194 33.810833,203.655960 
	C39.283047,198.702408 42.454365,198.503479 48.212788,203.248322 
	C52.060429,206.418686 55.549988,210.022095 59.221657,213.408020 
	C62.181004,216.137054 65.001854,216.663940 67.747574,212.087601 
M150.833908,179.595306 
	C150.833954,178.596436 150.836349,177.597565 150.833649,176.598694 
	C150.808990,167.493683 148.337341,164.967148 139.439575,164.964020 
	C129.950348,164.960693 120.460579,165.020355 110.972183,164.931458 
	C107.843414,164.902161 104.991219,165.244888 105.125710,169.150024 
	C105.247444,172.684875 107.984703,173.049683 110.894608,173.021530 
	C118.385399,172.949036 125.877464,172.975235 133.368835,173.007278 
	C140.283356,173.036850 141.958862,174.706451 141.992569,181.459641 
	C142.028473,188.654053 140.540298,190.161270 133.216705,190.198425 
	C126.557762,190.232208 119.898354,190.178574 113.239487,190.218719 
	C110.131660,190.237457 106.081886,189.619278 106.148354,194.222473 
	C106.208435,198.384476 109.982719,197.979965 112.996895,197.977203 
	C120.321899,197.970505 127.648331,197.892838 134.971451,198.011627 
	C140.046234,198.093948 141.834763,199.962418 141.973999,204.985382 
	C142.066223,208.312531 141.755814,211.675079 142.153000,214.957993 
	C142.319809,216.336761 143.608917,218.216431 144.825058,218.654449 
	C146.068619,219.102341 148.490356,218.549103 149.239517,217.558868 
	C150.318878,216.132172 150.744431,213.919952 150.768768,212.034180 
	C150.904083,201.547821 150.833817,191.058823 150.833908,179.595306 
M179.114227,86.733582 
	C179.216141,82.610382 179.090042,78.601021 174.201324,76.997482 
	C167.931519,74.940933 162.934967,78.882721 162.901642,86.127541 
	C162.828964,101.920677 162.861389,117.714409 162.886566,133.507828 
	C162.896820,139.934097 165.979843,143.513672 171.344177,143.474030 
	C176.511307,143.435852 179.095367,140.191315 179.106262,133.565582 
	C179.131439,118.270905 179.114243,102.976143 179.114227,86.733582 
M377.521179,382.679993 
	C383.186310,382.677551 388.851685,382.707062 394.516418,382.658905 
	C397.246582,382.635712 399.742401,381.825500 399.669586,378.581940 
	C399.595673,375.286621 397.129852,374.888245 394.335144,374.911133 
	C383.505463,374.999756 372.674591,374.925323 361.844269,374.955383 
	C355.480896,374.973053 352.613251,377.616241 352.501617,383.922729 
	C352.357117,392.084564 352.358765,400.252899 352.502350,408.414795 
	C352.617706,414.970062 355.627594,417.895905 362.056702,417.931091 
	C372.720154,417.989471 383.384155,417.947296 394.047943,417.947266 
	C396.987244,417.947266 400.109955,417.997681 399.973480,413.823517 
	C399.837799,409.673340 396.623169,409.973267 393.760071,409.969574 
	C385.762238,409.959320 377.763947,410.015167 369.766724,409.944916 
	C363.828156,409.892761 362.000183,408.349243 361.279877,402.478302 
	C360.916840,399.519318 361.049957,396.491455 361.067230,393.495361 
	C361.117157,384.841675 363.106964,382.807159 371.534485,382.686432 
	C373.200378,382.662567 374.866852,382.680878 377.521179,382.679993 
M372.209534,461.354523 
	C363.007996,463.606171 356.030701,468.444946 354.004761,478.235107 
	C352.138794,487.252197 355.121155,494.760071 362.783966,499.904419 
	C371.212494,505.562836 380.290741,505.901825 389.130615,501.039032 
	C402.866180,493.483154 403.955383,474.756500 391.479828,465.657166 
	C385.917999,461.600555 379.721100,460.528107 372.209534,461.354523 
M343.904022,312.480988 
	C341.130524,314.652802 336.547607,316.536835 340.171753,320.911835 
	C343.415039,324.827148 346.676636,321.891724 349.507263,319.403961 
	C353.258636,316.106934 357.041779,312.846008 360.789703,309.545135 
	C367.141876,303.950623 370.252869,303.906311 376.775330,309.503967 
	C380.943848,313.081482 385.011963,316.775909 389.170166,320.365631 
	C391.326691,322.227356 393.695679,322.747955 395.743866,320.330811 
	C397.798584,317.906036 397.633942,315.471191 395.003876,313.424438 
	C392.377716,311.380768 389.770599,309.311920 387.121124,307.298950 
	C378.347687,300.633392 372.141296,292.624786 373.099426,280.808533 
	C373.381592,277.328461 371.013580,276.491089 368.332428,276.552765 
	C364.669006,276.636963 363.682678,279.007324 363.949524,282.350342 
	C364.670563,291.383972 360.862854,298.496918 354.225403,304.252625 
	C351.086456,306.974548 347.730743,309.446564 343.904022,312.480988 
M381.912354,437.675842 
	C381.330231,433.455750 380.598541,429.248962 380.221771,425.010590 
	C379.994049,422.448975 379.240906,420.970581 376.397614,420.953491 
	C373.525330,420.936249 371.998657,422.077484 372.012421,425.037750 
	C372.024048,427.532806 371.987061,430.028168 372.007355,432.523102 
	C372.045349,437.196625 369.811279,439.622498 365.072693,439.626068 
	C360.082489,439.629822 355.061584,439.332886 350.118378,439.819855 
	C348.345123,439.994537 345.682892,441.812378 345.317291,443.334412 
	C344.608948,446.283447 347.017792,447.763092 349.906403,447.768860 
	C367.538605,447.804138 385.173065,447.907593 402.799713,447.592133 
	C404.500610,447.561676 406.152985,444.821686 407.827850,443.339447 
	C406.127777,442.114075 404.526917,440.044373 402.708008,439.830750 
	C398.277191,439.310272 393.738647,439.792786 389.256836,439.584198 
	C386.999359,439.479156 384.770996,438.749115 381.912354,437.675842 
M226.499023,215.953415 
	C231.487961,215.952942 236.479050,215.864136 241.464981,215.986252 
	C244.296356,216.055618 246.696884,215.415344 246.833572,212.254593 
	C246.983566,208.785965 244.499237,207.944763 241.457397,207.964081 
	C233.142868,208.016846 224.827591,208.012100 216.512924,207.969315 
	C209.248810,207.931946 207.285507,206.139648 207.092834,198.911163 
	C206.911240,192.097641 207.322678,185.256027 206.847610,178.470581 
	C206.716461,176.597580 204.571381,173.643738 202.962646,173.356354 
	C199.840302,172.798615 198.515533,175.456482 198.521423,178.539810 
	C198.539536,188.018707 198.414474,197.499557 198.570526,206.975922 
	C198.671555,213.112900 201.751663,215.887482 208.038345,215.941940 
	C213.858337,215.992355 219.679077,215.953156 226.499023,215.953415 
M446.251495,368.718750 
	C446.177643,361.891632 446.072876,355.064667 446.043488,348.237366 
	C446.029724,345.035858 444.591675,343.079315 441.344055,343.041534 
	C438.031555,343.002960 437.227600,345.462708 437.206726,348.152649 
	C437.140717,356.649780 437.000305,365.153809 437.269958,373.643036 
	C437.413361,378.156494 439.432007,381.984619 444.634460,382.079559 
	C456.624786,382.298431 468.623230,382.312592 480.611572,382.072144 
	C481.970367,382.044891 483.285858,379.858612 484.621399,378.673462 
	C483.335785,377.254486 482.242706,375.541992 480.693054,374.525482 
	C479.748810,373.906067 478.101288,374.342316 476.769440,374.332764 
	C468.940002,374.276550 461.110321,374.241760 453.281006,374.171906 
	C450.013763,374.142761 447.360046,373.160339 446.251495,368.718750 
M337.872345,350.982300 
	C338.631500,351.288177 339.389771,351.858673 340.149902,351.861115 
	C358.130066,351.918945 376.111969,352.019104 394.088043,351.746552 
	C395.699432,351.722137 398.361603,349.397888 398.632324,347.815948 
	C399.158020,344.744385 396.618683,343.806122 393.711670,343.867004 
	C388.719299,343.971527 383.723083,343.880035 378.728516,343.891113 
	C374.341309,343.900848 371.811554,341.996613 371.800934,337.353638 
	C371.794830,334.691681 371.815369,332.020782 371.608093,329.370789 
	C371.408997,326.825195 370.282745,324.349152 367.361389,325.211243 
	C365.653961,325.715088 363.821259,327.760040 363.213684,329.516052 
	C362.492432,331.600586 363.075409,334.121002 363.007660,336.450073 
	C362.840973,342.178680 361.259705,343.768585 355.442566,343.873169 
	C350.615997,343.959961 345.784180,343.800385 340.959290,343.925720 
	C336.540833,344.040436 335.502991,345.987793 337.872345,350.982300 
M484.423218,311.311646 
	C486.011017,310.138031 487.452393,308.359985 489.220764,307.931610 
	C491.911652,307.279724 494.951843,308.011627 497.605499,307.285461 
	C499.266846,306.830841 500.491272,304.779602 501.911743,303.444763 
	C500.549805,302.039093 499.418304,299.964783 497.767944,299.396179 
	C495.680786,298.677002 493.159119,299.021637 490.846344,299.194672 
	C485.737152,299.576965 484.042297,296.821625 484.065582,292.258209 
	C484.086792,288.101318 484.073242,283.944092 484.049622,279.787140 
	C484.032532,276.775085 482.517548,275.029755 479.481293,275.103180 
	C476.401764,275.177612 475.859772,277.340485 475.864899,279.957642 
	C475.900421,298.082458 475.911560,316.207458 475.852539,334.332153 
	C475.843201,337.201080 476.588623,339.510742 479.757965,339.515869 
	C483.068665,339.521210 484.128967,337.273529 484.099182,334.120331 
	C484.030212,326.806915 484.158234,319.491638 484.423218,311.311646 
M250.120605,139.976685 
	C232.959793,139.976562 215.798981,139.988113 198.638199,139.964737 
	C195.803040,139.960876 192.992584,140.108917 192.879089,143.808975 
	C192.753433,147.906067 195.755096,147.990585 198.774765,147.957520 
	C203.605835,147.904602 208.439423,148.023514 213.269196,147.928680 
	C217.909409,147.837570 219.958221,150.207397 220.025543,154.623627 
	C220.071259,157.621964 219.619598,160.715973 220.239365,163.583694 
	C220.598511,165.245636 222.639099,166.544189 223.923035,168.006287 
	C225.373520,166.546143 227.667221,165.293198 228.088135,163.580078 
	C228.824799,160.581879 228.366974,157.299408 228.490875,154.139221 
	C228.658859,149.854019 230.974411,147.890244 235.226227,147.941010 
	C240.223724,148.000702 245.242249,148.195938 250.209961,147.803986 
	C251.900009,147.670654 254.387222,146.264816 254.889938,144.860489 
	C255.893326,142.057358 254.238525,140.112320 250.120605,139.976685 
M228.499023,293.017426 
	C233.163269,293.017151 237.829361,292.937439 242.491119,293.044922 
	C245.517670,293.114716 248.600662,293.019073 248.659775,289.138885 
	C248.724609,284.881775 245.396408,284.928772 242.236618,284.955963 
	C234.574509,285.021942 226.911392,284.994080 219.248779,284.970825 
	C212.184982,284.949402 210.094009,282.898529 209.997223,275.750519 
	C209.918304,269.921265 210.274078,264.064545 209.777023,258.276672 
	C209.641647,256.700317 207.355545,254.557251 205.641907,254.035217 
	C202.708694,253.141663 201.494049,255.492645 201.478806,258.138184 
	C201.427017,267.132172 201.302048,276.132324 201.574097,285.118988 
	C201.726044,290.138519 204.941452,292.899261 210.009064,292.989746 
	C215.837524,293.093872 221.669235,293.016144 228.499023,293.017426 
M239.749847,84.116852 
	C228.591644,84.090805 217.433319,84.087532 206.275345,84.023254 
	C203.365753,84.006485 200.743820,84.249413 200.908646,88.105721 
	C201.068298,91.841408 203.759506,92.046883 206.590347,92.039925 
	C213.585419,92.022736 220.580566,92.024544 227.575668,92.038681 
	C235.853867,92.055420 237.778290,93.956589 237.864151,102.391365 
	C237.931976,109.052704 237.973511,115.717102 237.840134,122.376404 
	C237.781219,125.317780 238.628754,127.494614 241.772446,127.508743 
	C245.044174,127.523460 246.206863,125.439041 246.164764,122.206383 
	C246.039017,112.548103 245.989365,102.884605 246.177750,93.228363 
	C246.263443,88.834862 244.716293,85.852577 239.749847,84.116852 
M90.881935,215.493225 
	C90.881935,212.835480 90.882149,210.177719 90.881912,207.519974 
	C90.880882,196.058411 90.906494,184.596741 90.860268,173.135361 
	C90.848343,170.179810 89.779030,167.414047 86.353111,168.112381 
	C84.765366,168.436035 82.472160,170.915268 82.449669,172.445923 
	C82.178757,190.880096 82.158745,209.321579 82.468506,227.754501 
	C82.496315,229.408997 85.094902,232.116608 86.816864,232.398743 
	C89.658463,232.864334 90.961670,230.391556 90.897758,227.452271 
	C90.818344,223.799622 90.880760,220.143875 90.881935,215.493225 
M169.053955,198.500000 
	C169.055084,208.148499 169.104202,217.797394 169.028870,227.445282 
	C169.005478,230.441742 170.245468,232.448334 173.201950,232.533142 
	C176.256622,232.620773 177.405014,230.581482 177.395935,227.585754 
	C177.340942,209.453384 177.369461,191.320770 177.364410,173.188248 
	C177.363586,170.224335 176.661880,167.840500 172.968658,167.941284 
	C169.117157,168.046402 169.039459,170.724808 169.047653,173.545120 
	C169.070847,181.530014 169.054642,189.515030 169.053955,198.500000 
M259.196350,166.732269 
	C258.777863,170.743988 260.899078,171.974472 264.563660,171.961334 
	C281.718384,171.899796 298.873688,171.883392 316.028076,171.981140 
	C319.079895,171.998520 321.620697,171.365662 321.710693,168.011276 
	C321.801910,164.609039 319.298828,163.875443 316.223999,163.890350 
	C299.069489,163.973557 281.913818,163.871307 264.760223,164.021072 
	C263.029022,164.036179 261.308838,165.313019 259.196350,166.732269 
M245.383911,240.370895 
	C247.041061,240.311386 248.871368,240.666214 250.303314,240.067825 
	C251.561569,239.542007 253.243668,237.886337 253.168991,236.841904 
	C253.069092,235.444748 251.538010,234.080521 250.440186,232.866074 
	C250.107010,232.497513 249.173950,232.606445 248.515610,232.606064 
	C230.909744,232.595871 213.303879,232.598663 195.698013,232.608475 
	C195.203751,232.608749 194.526047,232.523254 194.247299,232.796967 
	C193.084259,233.939011 191.211105,235.187927 191.188248,236.426987 
	C191.165543,237.658493 192.827347,239.327774 194.159851,240.055557 
	C195.335403,240.697617 197.075424,240.361221 198.566284,240.362579 
	C213.846893,240.376495 229.127518,240.371170 245.383911,240.370895 
M141.805649,33.741901 
	C144.737274,35.282139 144.687027,37.230209 142.126282,38.881485 
	C141.172363,39.496616 139.436447,38.759357 138.223770,39.152637 
	C137.033829,39.538548 136.055573,40.577236 134.984421,41.329445 
	C135.983475,41.956013 136.965866,43.090981 137.984375,43.124393 
	C143.475006,43.304535 148.977921,43.307732 154.467987,43.120281 
	C155.415848,43.087917 156.322418,41.846401 157.248062,41.163410 
	C156.316559,40.466660 155.458557,39.341042 154.437622,39.166016 
	C152.545883,38.841702 150.558899,39.073154 147.036835,39.073154 
	C148.458313,36.510807 149.335709,35.076714 150.069534,33.572586 
	C151.232513,31.188854 152.347626,28.778542 153.375504,26.334270 
	C153.657013,25.664818 153.358780,24.737989 153.671982,24.098421 
	C154.239380,22.939829 155.066376,21.908365 155.784988,20.823822 
	C154.415237,20.458576 153.056458,20.042234 151.672195,19.744480 
	C150.592300,19.512196 149.480713,19.427305 148.290649,19.264233 
	C148.195679,18.342773 148.307892,17.602741 148.025787,17.072474 
	C147.424561,15.942290 146.618759,14.920943 145.896790,13.854992 
	C145.207199,14.900889 144.628723,16.047207 143.798416,16.965931 
	C142.870041,17.993164 141.845856,19.156879 140.619690,19.630857 
	C139.323715,20.131819 137.740677,19.890173 135.562683,20.013803 
	C136.535950,22.457979 137.279083,24.431446 138.104645,26.369799 
	C139.094025,28.692797 140.153778,30.985828 141.805649,33.741901 
M252.611694,22.208118 
	C255.268204,20.339678 254.543640,18.654524 251.856598,18.337603 
	C248.248123,17.912004 244.537247,18.146215 240.890564,18.394461 
	C239.936813,18.459387 238.322617,19.569258 238.267899,20.294075 
	C237.981354,24.088737 237.586716,28.018709 238.334869,31.675526 
	C238.623367,33.085663 241.827332,33.899319 243.799820,35.040771 
	C244.889709,39.983955 241.183502,38.839451 238.303116,39.169102 
	C237.139679,39.302258 236.095886,40.480648 234.997635,41.183372 
	C236.094742,41.853931 237.168182,43.052979 238.293076,43.103382 
	C243.113907,43.319397 247.957504,43.348572 252.775787,43.106838 
	C254.241837,43.033287 255.653351,41.872829 257.089844,41.210171 
	C255.666550,40.497372 254.237518,39.177696 252.821106,39.191120 
	C249.265320,39.224804 247.340927,38.366161 248.519302,34.145473 
	C249.475540,34.092010 250.587982,34.322285 251.369659,33.916058 
	C252.481003,33.338497 253.349197,32.293053 254.321289,31.447510 
	C253.250732,30.943405 252.221359,30.170998 251.099854,29.998941 
	C249.472321,29.749247 247.773102,29.848761 246.113770,29.950909 
	C243.331894,30.122168 241.711609,28.703411 242.312988,26.152819 
	C242.655365,24.700758 244.363968,23.045460 245.829987,22.518599 
	C247.605286,21.880587 249.774261,22.337984 252.611694,22.208118 
M296.649628,43.184532 
	C296.643951,46.840721 296.333954,50.534470 296.778442,54.135090 
	C296.963043,55.630856 298.552216,57.883366 299.854034,58.164463 
	C310.594330,60.483601 312.850555,58.560802 312.847870,47.765728 
	C312.847809,47.433334 312.936035,47.070621 312.833801,46.773392 
	C312.089844,44.610340 311.307587,42.460476 310.537445,40.306446 
	C309.292175,41.992805 308.046906,43.679165 306.566467,45.683968 
	C305.321411,45.683968 303.542999,45.683968 301.833160,45.683968 
	C300.062683,40.094410 300.062683,40.094410 296.649628,43.184532 
M297.195831,34.960213 
	C301.889008,33.819134 304.353271,31.125486 303.531830,26.035908 
	C303.433563,25.427120 303.668579,24.669121 303.981506,24.110453 
	C304.529572,23.131950 305.257904,22.254406 305.910736,21.334568 
	C304.775482,20.872459 303.676056,20.235741 302.495667,19.993645 
	C301.105194,19.708458 299.644623,19.765133 299.473755,19.754194 
	C297.946289,17.231041 296.963959,15.608435 295.981659,13.985836 
	C294.902710,15.757195 293.823792,17.528553 292.453857,19.777609 
	C292.360962,19.786736 291.540039,19.791067 290.754700,19.960331 
	C289.099640,20.317051 287.463135,20.760174 285.819031,21.167843 
	C286.671967,22.240639 287.611328,23.259413 288.332947,24.414278 
	C288.600983,24.843224 288.362671,25.591223 288.348236,26.193554 
	C288.204529,32.187378 290.111267,34.275795 297.195831,34.960213 
M171.424561,33.889919 
	C175.459183,30.059706 179.476547,26.814615 184.271973,33.051193 
	C184.613342,33.495140 186.458054,32.783123 187.603760,32.608601 
	C187.245407,31.658758 187.130341,30.474104 186.482910,29.803280 
	C184.570694,27.821989 182.447906,26.043905 179.448242,23.312994 
	C182.004440,23.125879 182.919098,23.288099 183.596252,22.960068 
	C184.875000,22.340593 186.017120,21.439116 187.216034,20.654837 
	C185.923187,20.001854 184.677368,18.937960 183.327454,18.783436 
	C180.706421,18.483408 177.985413,18.407187 175.384644,18.783319 
	C173.269531,19.089216 171.269516,20.190889 169.218460,20.939659 
	C171.180634,21.675539 173.147842,22.398561 175.098511,23.163782 
	C175.338654,23.257988 175.490417,23.577486 176.193985,24.362751 
	C174.281403,26.034950 172.406158,27.772011 170.425751,29.379545 
	C168.289978,31.113203 167.391449,32.639885 171.424561,33.889919 
M274.916199,25.426760 
	C273.079712,21.613354 276.473846,23.604761 277.570831,22.968918 
	C278.791412,22.261459 279.870758,21.310434 281.011597,20.465433 
	C279.811432,19.879261 278.644928,18.890982 277.404358,18.787056 
	C274.430969,18.537966 271.400787,18.485781 268.436493,18.782871 
	C266.565308,18.970409 264.771515,19.930599 262.943024,20.544216 
	C264.760284,21.412275 266.583221,22.268776 268.388000,23.162046 
	C268.632263,23.282944 268.785126,23.588472 269.653656,24.567680 
	C267.618683,26.306234 265.469910,27.927528 263.615997,29.835348 
	C262.910797,30.561064 262.883148,31.945162 262.546692,33.029194 
	C263.722504,33.100422 264.939728,33.383896 266.058960,33.165394 
	C266.760406,33.028461 267.397675,32.205383 267.920837,31.572115 
	C270.709290,28.196856 273.395477,28.335453 276.085632,31.682888 
	C276.497711,32.195618 276.995056,32.864758 277.554932,32.984409 
	C278.555450,33.198223 279.633636,33.048500 280.679352,33.050766 
	C280.491913,31.916180 280.685181,30.438652 280.037018,29.719095 
	C278.726959,28.264778 276.960144,27.221901 274.916199,25.426760 
M248.578735,46.876038 
	C243.000443,45.891762 238.950287,47.872292 237.837814,52.128376 
	C236.729019,56.370384 238.733063,60.305862 242.734085,61.743565 
	C246.728653,63.178951 251.918015,61.436848 253.631119,58.085350 
	C255.660400,54.115314 254.008087,49.882698 248.578735,46.876038 
M100.382835,30.192898 
	C101.209496,33.759125 102.425575,34.441536 104.872581,31.934992 
	C108.635330,28.080675 111.811707,26.850170 115.581848,31.809671 
	C116.170441,32.583935 118.111214,32.330299 119.426727,32.551975 
	C119.046310,31.186369 119.091011,29.366352 118.206856,28.539188 
	C115.400810,25.914032 112.380424,23.644987 112.498405,19.188221 
	C112.516815,18.493076 111.111084,17.232483 110.321976,17.198204 
	C109.592468,17.166512 108.149605,18.430248 108.150330,19.122288 
	C108.155838,24.365040 104.542953,26.995020 100.382835,30.192898 
M313.443146,18.515009 
	C312.486359,17.907993 311.529572,17.300980 310.572754,16.693977 
	C310.064667,17.639900 309.149658,18.572243 309.117584,19.534050 
	C308.962280,24.186640 308.817657,28.863483 309.151550,33.496960 
	C309.288879,35.402905 310.637543,37.221561 311.435211,39.079933 
	C312.134766,37.304356 313.269257,35.567692 313.432404,33.744122 
	C313.680054,30.975798 313.266022,28.278986 317.447876,28.564360 
	C318.205627,28.616068 319.058014,27.282036 319.866730,26.587742 
	C319.046448,25.892410 318.196960,24.569962 317.410767,24.606577 
	C313.243408,24.800655 313.422577,22.083992 313.443146,18.515009 
M260.739532,41.325512 
	C260.926819,41.774578 261.102386,42.610588 261.303101,42.616673 
	C268.022186,42.820202 274.743530,42.981689 281.465027,43.002995 
	C281.950165,43.004528 282.966400,41.605545 282.830933,41.362946 
	C282.343719,40.490353 281.545166,39.321026 280.724274,39.197979 
	C278.676239,38.890987 276.551361,39.096821 275.416229,39.096821 
	C273.951111,36.500050 272.999451,34.813374 272.047821,33.126694 
	C270.745483,34.892445 269.443176,36.658199 268.065063,38.526676 
	C265.949921,39.095917 263.404327,39.780994 260.739532,41.325512 
M193.008377,36.140316 
	C193.815338,37.151772 194.622299,38.163227 195.429276,39.174675 
	C196.064133,38.056202 197.205261,36.956406 197.247330,35.816067 
	C197.442123,30.535519 197.420120,25.240944 197.254807,19.958305 
	C197.222382,18.922091 196.212723,17.916454 195.653763,16.896715 
	C194.773056,17.831223 193.171951,18.747749 193.148087,19.703648 
	C193.079315,22.458807 192.575790,24.172522 189.308853,23.981535 
	C188.607773,23.940548 187.842957,24.989508 187.107498,25.536373 
	C187.838516,26.283213 188.446640,27.299644 189.333755,27.704006 
	C190.295395,28.142334 191.516983,28.010361 193.003555,28.166950 
	C193.003555,30.662638 193.003555,32.950958 193.008377,36.140316 
M127.203110,29.981918 
	C128.032761,29.560755 128.872498,29.158138 129.689651,28.713997 
	C130.864243,28.075602 132.022400,27.406977 133.187561,26.751251 
	C131.965607,25.976685 130.771698,25.151577 129.508713,24.450975 
	C128.958572,24.145798 128.266708,24.096092 127.317619,23.845427 
	C127.231140,22.362684 127.370621,20.843424 126.989082,19.468771 
	C126.692093,18.398767 125.746284,17.508848 125.088829,16.538897 
	C124.352028,17.427624 123.006729,18.296762 122.977379,19.208267 
	C122.789894,25.031748 122.818222,30.866650 122.984375,36.691837 
	C123.007179,37.491253 124.188805,38.257614 124.833916,39.039280 
	C125.561676,38.315807 126.780251,37.675106 126.919014,36.852306 
	C127.247322,34.905552 127.062538,32.872272 127.203110,29.981918 
M185.590057,45.003902 
	C190.525360,44.220840 192.294937,46.563419 191.761139,51.222347 
	C191.686356,51.875038 191.543320,52.660587 191.817078,53.182659 
	C192.353897,54.206436 193.162003,55.087955 193.857819,56.028339 
	C194.589539,55.143242 195.864883,54.308315 195.952072,53.363739 
	C196.224731,50.409519 196.338150,47.371429 195.909973,44.454399 
	C195.728775,43.219975 194.134918,41.366047 193.025238,41.245338 
	C189.262512,40.836052 185.425415,40.986450 181.626434,41.149422 
	C180.947586,41.178547 180.314972,42.285633 179.661026,42.894989 
	C180.347977,43.593342 180.920517,44.567558 181.753784,44.913185 
	C182.602768,45.265339 183.708237,44.999142 185.590057,45.003902 
M159.742920,37.574409 
	C163.105103,41.016232 163.867386,38.596386 163.956818,35.562111 
	C164.103333,30.591410 164.137817,25.606663 163.903244,20.642786 
	C163.842209,19.351038 162.609833,18.114637 161.915466,16.852812 
	C161.065323,18.178486 159.546738,19.473011 159.483261,20.835348 
	C159.236710,26.126074 159.452606,31.438349 159.742920,37.574409 
z"/>
<path fill="#039B46" opacity="1.000000" stroke="none" 
	d="
M97.490555,93.413300 
	C94.216125,85.429710 97.071060,80.881462 105.002060,80.856300 
	C117.491249,80.816681 129.980789,80.810989 142.469894,80.861900 
	C148.311539,80.885712 151.073563,83.539536 150.977432,88.788094 
	C150.888321,93.653992 148.181274,95.947548 142.354752,96.045410 
	C140.024063,96.084564 137.683578,95.933731 135.364365,96.101669 
	C134.153732,96.189339 132.091522,96.598251 131.971268,97.182594 
	C131.709610,98.453934 132.067368,100.224449 132.864868,101.254402 
	C134.041611,102.774155 135.738678,103.948769 137.361542,105.053902 
	C141.343140,107.765259 145.512741,110.209427 149.412338,113.029839 
	C153.458572,115.956306 154.222229,120.405884 151.621231,123.874359 
	C148.995468,127.375870 143.728867,128.361816 140.065231,125.660202 
	C136.455734,122.998512 133.130783,119.949242 129.698532,117.049271 
	C124.698875,112.824966 123.503525,112.806633 118.584305,116.874733 
	C115.122993,119.737167 111.686584,122.632820 108.153862,125.405075 
	C103.253281,129.250732 98.226494,128.891556 95.088638,124.593147 
	C92.137970,120.551147 93.536697,115.977188 98.722298,112.619308 
	C102.765373,110.001259 106.999657,107.616684 110.743217,104.621262 
	C112.965149,102.843376 114.400574,100.082535 116.413094,97.474022 
	C109.348404,96.053833 103.550514,94.888298 97.490555,93.413300 
z"/>
<path fill="#03A2EA" opacity="1.000000" stroke="none" 
	d="
M240.025314,407.836792 
	C240.259247,404.794128 240.495010,402.187805 240.719299,399.708221 
	C238.840714,398.512512 236.490051,397.668365 235.114471,396.013641 
	C231.550385,391.726257 234.179703,385.496613 239.771973,384.760071 
	C242.723450,384.371368 245.767899,384.328552 248.740189,384.544617 
	C252.886322,384.845978 254.295639,383.273651 254.109390,379.093536 
	C253.836166,372.961517 256.037476,369.728699 260.068268,369.067352 
	C265.182892,368.228210 268.813812,371.514526 268.977844,377.131348 
	C269.192444,384.479736 269.192413,384.476868 276.446503,384.492249 
	C278.277802,384.496124 280.112488,384.459564 281.939606,384.555664 
	C285.786163,384.758087 288.852020,386.152771 289.390350,390.434265 
	C289.921631,394.659821 287.977814,397.436768 283.893921,398.689789 
	C283.291168,398.874725 282.688019,399.058319 282.108704,399.235321 
	C285.229065,413.601776 278.647064,424.410767 265.562103,426.792816 
	C253.171814,429.048401 241.673279,420.708893 240.025314,407.836792 
M266.448425,399.962982 
	C260.548523,397.434326 255.632919,398.728699 253.973923,403.298431 
	C252.513794,407.320374 253.839340,410.487000 257.327789,412.674072 
	C261.126282,415.055542 264.808105,414.252747 267.588074,411.050568 
	C270.618439,407.559937 270.248108,403.805450 266.448425,399.962982 
z"/>
<path fill="#04A2EA" opacity="1.000000" stroke="none" 
	d="
M309.213959,431.511597 
	C308.437714,436.356659 305.615479,438.350830 301.412079,437.900787 
	C297.038055,437.432465 295.199188,434.287872 295.179901,430.184662 
	C295.108612,415.030823 295.069550,399.875732 295.201202,384.722717 
	C295.243958,379.799072 298.249359,377.010284 302.613892,377.148834 
	C306.838074,377.282928 309.045197,379.784271 309.278900,384.832062 
	C309.432678,388.153534 309.049286,391.575928 309.762634,394.761353 
	C310.089233,396.219788 312.584961,398.289581 313.904572,398.157684 
	C315.651886,397.983032 318.218475,396.188721 318.633789,394.615509 
	C319.416290,391.651093 318.874176,388.346069 318.951965,385.184357 
	C319.076569,380.120483 321.609924,377.205780 325.863373,377.145142 
	C330.148712,377.084076 332.957794,380.018738 332.977753,384.938873 
	C333.039185,400.092834 333.041870,415.247375 332.975311,430.401306 
	C332.952667,435.556580 330.438751,438.197510 325.961517,438.182739 
	C321.472687,438.167938 319.063019,435.551575 318.961304,430.378876 
	C318.876190,426.050751 318.917328,421.719482 318.948883,417.389954 
	C318.973083,414.066620 319.012360,410.952026 314.290588,410.838165 
	C309.188507,410.715149 309.319122,414.124512 309.304047,417.579163 
	C309.284424,422.075134 309.271973,426.571106 309.213959,431.511597 
z"/>
<path fill="#079D4A" opacity="1.000000" stroke="none" 
	d="
M294.008850,140.404846 
	C299.333893,140.410385 304.199677,140.076340 308.970825,140.601898 
	C310.685791,140.790787 312.172760,143.049393 313.763794,144.363419 
	C312.176147,145.677231 310.621338,148.079941 308.995514,148.129044 
	C298.016968,148.460526 287.020935,148.428711 276.035706,148.229889 
	C270.719696,148.133652 267.960968,144.957642 267.901581,139.557449 
	C267.833832,133.397675 267.848511,127.236328 267.895691,121.076187 
	C267.943207,114.873940 271.430847,111.233093 277.734833,111.063507 
	C283.724579,110.902382 289.725433,110.895393 295.714783,111.060135 
	C300.430267,111.189835 303.015350,109.023750 303.331635,104.457611 
	C303.535919,101.508652 303.411255,98.489433 303.015869,95.558090 
	C302.489319,91.654106 299.890259,89.947220 296.020416,89.961174 
	C288.694519,89.987602 281.367859,89.913269 274.042725,89.992142 
	C271.038269,90.024490 268.384491,89.228142 268.348206,85.930504 
	C268.311462,82.588234 270.918213,81.858910 273.967102,81.892822 
	C283.789398,82.002090 293.614166,81.874832 303.436981,81.958817 
	C309.234558,82.008377 312.010651,84.749046 312.103424,90.446510 
	C312.203735,96.605415 312.158447,102.767281 312.126007,108.927589 
	C312.089752,115.814659 309.540527,118.457329 302.485352,118.632721 
	C296.661377,118.777512 290.829834,118.592705 285.003906,118.690674 
	C278.977081,118.792015 277.408508,120.173958 276.256165,125.968979 
	C274.279877,135.907593 277.922241,140.378616 288.017670,140.403534 
	C289.849182,140.408066 291.680695,140.404556 294.008850,140.404846 
z"/>
<path fill="#04A2EA" opacity="1.000000" stroke="none" 
	d="
M294.262085,481.969299 
	C283.105743,475.839661 278.696747,465.949219 282.050262,455.263062 
	C285.131622,445.444122 296.495819,438.767731 307.877441,440.089752 
	C319.344879,441.421722 327.767639,449.654724 328.862854,460.602478 
	C330.314178,475.109680 314.973724,487.073090 299.369537,483.569244 
	C297.759827,483.207794 296.206421,482.595490 294.262085,481.969299 
M313.750275,459.241241 
	C311.706848,454.692871 308.121552,452.911682 303.307861,453.652588 
	C299.304108,454.268921 296.667358,456.553589 296.014984,460.667511 
	C295.179932,465.933228 299.032166,470.332672 304.586700,470.608948 
	C310.563080,470.906250 314.078888,466.931976 313.750275,459.241241 
z"/>
<path fill="#04A2EA" opacity="1.000000" stroke="none" 
	d="
M299.492188,279.073975 
	C299.865173,280.889954 300.148071,282.379608 300.080170,283.853149 
	C299.714325,291.792816 302.799927,298.055725 309.093933,302.801331 
	C311.875488,304.898590 314.673645,306.974243 317.484589,309.031982 
	C322.452789,312.668884 323.450684,317.562286 320.062378,321.794403 
	C316.643372,326.064880 311.630768,326.024139 307.211029,321.574219 
	C304.166687,318.509155 301.343506,315.221588 298.254425,312.204498 
	C293.931000,307.981812 291.573853,307.941406 287.222260,312.051239 
	C283.598724,315.473450 280.219879,319.153259 276.649261,322.633392 
	C272.438629,326.737305 266.540680,326.604218 263.070770,322.429535 
	C259.905121,318.620911 260.833984,314.267456 265.577148,310.484100 
	C269.211700,307.585022 272.957062,304.803436 276.396912,301.686798 
	C281.381683,297.170410 284.674469,291.730316 284.039978,284.643066 
	C283.657104,280.366669 285.005951,277.003448 289.193542,275.470856 
	C293.258087,273.983307 296.686737,275.203705 299.492188,279.073975 
z"/>
<path fill="#079D4A" opacity="1.000000" stroke="none" 
	d="
M281.214905,226.862869 
	C276.577454,232.207733 277.333618,238.053741 279.399323,243.517395 
	C280.046173,245.228256 283.539948,246.673416 285.815094,246.807632 
	C292.948944,247.228439 300.123230,246.994827 307.281525,246.956055 
	C310.394653,246.939194 313.089142,247.406845 313.035095,251.366135 
	C312.979675,255.423477 309.948334,254.976212 307.290924,254.979263 
	C297.801727,254.990173 288.312408,255.013443 278.823395,254.971863 
	C272.662201,254.944870 269.241882,251.685837 269.091675,245.549255 
	C268.957275,240.058792 269.002167,234.561630 269.076965,229.068924 
	C269.170990,222.165878 272.901215,218.405090 279.935242,218.216171 
	C285.425079,218.068741 290.920959,218.098038 296.413757,218.127151 
	C300.483093,218.148712 302.423157,215.944229 303.084900,212.172531 
	C304.891541,201.874939 301.879883,198.177307 291.606964,198.158173 
	C285.946747,198.147629 280.286285,198.121552 274.626404,198.163879 
	C271.889771,198.184341 269.566101,197.132797 270.265686,194.266342 
	C270.662018,192.642426 273.070282,190.411118 274.643250,190.352417 
	C284.285370,189.992706 293.951508,190.014069 303.601929,190.239838 
	C309.294006,190.373001 311.876373,193.407608 311.932343,199.224808 
	C311.988403,205.050980 311.973572,210.878250 311.938477,216.704742 
	C311.899536,223.162628 309.446228,225.690964 302.922791,225.944580 
	C295.810577,226.221100 288.695312,226.417953 281.214905,226.862869 
z"/>
<path fill="#06A3EA" opacity="1.000000" stroke="none" 
	d="
M415.325134,314.291138 
	C412.455963,306.551208 413.672699,299.631470 418.583282,292.436188 
	C415.213684,292.436188 412.642792,292.888428 410.361115,292.271301 
	C408.928955,291.883942 406.959015,289.858795 406.999512,288.626587 
	C407.044006,287.272430 409.006165,284.999512 410.329407,284.848419 
	C414.766022,284.341644 419.293060,284.688538 423.780457,284.548462 
	C429.730682,284.362793 431.010956,282.976562 431.043884,277.072937 
	C431.055023,275.076691 430.522186,272.868286 431.209930,271.144653 
	C431.876404,269.474274 433.739624,267.278351 435.173370,267.205536 
	C436.546082,267.135742 438.785431,269.256195 439.306427,270.850952 
	C440.046204,273.115509 439.675049,275.784637 439.574799,278.272705 
	C439.404327,282.502960 441.593079,284.385498 445.557953,284.486664 
	C449.880188,284.596924 454.254669,284.201538 458.506805,284.770599 
	C460.248505,285.003662 462.671448,286.921967 463.125366,288.539307 
	C463.974213,291.563690 461.279846,292.326752 458.773407,292.464478 
	C456.980896,292.562958 455.178619,292.483612 453.215973,292.483612 
	C459.060883,309.794220 456.496338,319.436859 444.946594,324.781799 
	C433.999664,329.847778 421.900726,325.679535 415.325134,314.291138 
M448.397858,304.633911 
	C447.210938,296.250519 442.421692,292.451263 433.654755,292.938354 
	C426.899475,293.313690 422.027802,298.398987 421.914276,305.193695 
	C421.785553,312.897827 426.910370,318.244934 434.771301,318.608368 
	C442.470642,318.964294 447.683807,313.971344 448.397858,304.633911 
z"/>
<path fill="#03A2EA" opacity="1.000000" stroke="none" 
	d="
M324.203278,341.654297 
	C328.755859,348.943390 325.584991,354.862732 317.329010,354.911377 
	C300.344391,355.011414 283.358612,354.979218 266.373596,354.918823 
	C260.830139,354.899109 257.191528,351.717560 257.171661,347.191986 
	C257.151337,342.563354 260.496368,339.716461 266.311859,339.536102 
	C269.306458,339.443176 272.306152,339.518066 275.303528,339.510345 
	C283.259125,339.489929 283.733032,339.032410 283.989532,331.151794 
	C284.203796,324.569153 290.944244,320.592529 296.214722,324.420807 
	C298.239319,325.891388 299.635468,329.279083 299.890076,331.930389 
	C300.560547,338.912018 300.790192,339.238068 307.854095,339.581879 
	C313.229553,339.843506 318.573303,340.755798 324.203278,341.654297 
z"/>
<path fill="#069C49" opacity="1.000000" stroke="none" 
	d="
M67.602264,212.424316 
	C65.001854,216.663940 62.181004,216.137054 59.221657,213.408020 
	C55.549988,210.022095 52.060429,206.418686 48.212788,203.248322 
	C42.454365,198.503479 39.283047,198.702408 33.810833,203.655960 
	C30.107580,207.008194 26.443838,210.404999 22.804529,213.826645 
	C20.296515,216.184662 17.413424,217.187683 14.941569,214.392014 
	C12.292489,211.395889 14.369018,209.291550 16.936104,207.038620 
	C22.520124,202.138016 27.961861,197.019608 32.938763,191.517181 
	C34.414566,189.885513 35.115425,186.295441 34.340942,184.320633 
	C33.809967,182.966690 30.152277,182.580078 27.823774,182.260895 
	C25.371002,181.924698 22.833040,182.096878 20.339090,182.204407 
	C17.556450,182.324371 15.676100,181.248154 15.598021,178.376709 
	C15.512801,175.242676 17.511509,174.004639 20.469128,174.078003 
	C20.635592,174.082138 20.802267,174.077469 20.968843,174.077469 
	C34.461567,174.077881 47.954346,174.098389 61.446972,174.063110 
	C64.402588,174.055374 66.923553,174.557220 66.938248,178.208145 
	C66.953453,181.983322 64.291611,182.249237 61.399368,182.199646 
	C58.069130,182.142548 54.720203,182.000153 51.410030,182.270279 
	C47.918190,182.555206 45.943653,184.685318 47.694622,188.043228 
	C49.577297,191.653717 51.905682,195.186020 54.698910,198.126038 
	C57.767689,201.356064 61.754578,203.696777 65.002037,206.782227 
	C66.366096,208.078232 66.858765,210.291382 67.602264,212.424316 
z"/>
<path fill="#089D4A" opacity="1.000000" stroke="none" 
	d="
M150.833893,180.083008 
	C150.833817,191.058823 150.904083,201.547821 150.768768,212.034180 
	C150.744431,213.919952 150.318878,216.132172 149.239517,217.558868 
	C148.490356,218.549103 146.068619,219.102341 144.825058,218.654449 
	C143.608917,218.216431 142.319809,216.336761 142.153000,214.957993 
	C141.755814,211.675079 142.066223,208.312531 141.973999,204.985382 
	C141.834763,199.962418 140.046234,198.093948 134.971451,198.011627 
	C127.648331,197.892838 120.321899,197.970505 112.996895,197.977203 
	C109.982719,197.979965 106.208435,198.384476 106.148354,194.222473 
	C106.081886,189.619278 110.131660,190.237457 113.239487,190.218719 
	C119.898354,190.178574 126.557762,190.232208 133.216705,190.198425 
	C140.540298,190.161270 142.028473,188.654053 141.992569,181.459641 
	C141.958862,174.706451 140.283356,173.036850 133.368835,173.007278 
	C125.877464,172.975235 118.385399,172.949036 110.894608,173.021530 
	C107.984703,173.049683 105.247444,172.684875 105.125710,169.150024 
	C104.991219,165.244888 107.843414,164.902161 110.972183,164.931458 
	C120.460579,165.020355 129.950348,164.960693 139.439575,164.964020 
	C148.337341,164.967148 150.808990,167.493683 150.833649,176.598694 
	C150.836349,177.597565 150.833954,178.596436 150.833893,180.083008 
z"/>
<path fill="#019A45" opacity="1.000000" stroke="none" 
	d="
M179.114227,87.207504 
	C179.114243,102.976143 179.131439,118.270905 179.106262,133.565582 
	C179.095367,140.191315 176.511307,143.435852 171.344177,143.474030 
	C165.979843,143.513672 162.896820,139.934097 162.886566,133.507828 
	C162.861389,117.714409 162.828964,101.920677 162.901642,86.127541 
	C162.934967,78.882721 167.931519,74.940933 174.201324,76.997482 
	C179.090042,78.601021 179.216141,82.610382 179.114227,87.207504 
z"/>
<path fill="#07A3EB" opacity="1.000000" stroke="none" 
	d="
M377.027130,382.679871 
	C374.866852,382.680878 373.200378,382.662567 371.534485,382.686432 
	C363.106964,382.807159 361.117157,384.841675 361.067230,393.495361 
	C361.049957,396.491455 360.916840,399.519318 361.279877,402.478302 
	C362.000183,408.349243 363.828156,409.892761 369.766724,409.944916 
	C377.763947,410.015167 385.762238,409.959320 393.760071,409.969574 
	C396.623169,409.973267 399.837799,409.673340 399.973480,413.823517 
	C400.109955,417.997681 396.987244,417.947266 394.047943,417.947266 
	C383.384155,417.947296 372.720154,417.989471 362.056702,417.931091 
	C355.627594,417.895905 352.617706,414.970062 352.502350,408.414795 
	C352.358765,400.252899 352.357117,392.084564 352.501617,383.922729 
	C352.613251,377.616241 355.480896,374.973053 361.844269,374.955383 
	C372.674591,374.925323 383.505463,374.999756 394.335144,374.911133 
	C397.129852,374.888245 399.595673,375.286621 399.669586,378.581940 
	C399.742401,381.825500 397.246582,382.635712 394.516418,382.658905 
	C388.851685,382.707062 383.186310,382.677551 377.027130,382.679871 
z"/>
<path fill="#07A3EB" opacity="1.000000" stroke="none" 
	d="
M372.634003,461.283173 
	C379.721100,460.528107 385.917999,461.600555 391.479828,465.657166 
	C403.955383,474.756500 402.866180,493.483154 389.130615,501.039032 
	C380.290741,505.901825 371.212494,505.562836 362.783966,499.904419 
	C355.121155,494.760071 352.138794,487.252197 354.004761,478.235107 
	C356.030701,468.444946 363.007996,463.606171 372.634003,461.283173 
M362.605408,486.526459 
	C365.240417,493.665466 369.909668,496.443695 378.625488,496.058533 
	C384.657562,495.791962 389.818024,491.663300 390.907501,486.232208 
	C392.298645,479.297089 389.814178,473.249054 384.130157,470.524475 
	C378.460541,467.806885 372.801239,468.093597 367.562866,471.707062 
	C362.602966,475.128448 361.369781,480.076233 362.605408,486.526459 
z"/>
<path fill="#07A3EB" opacity="1.000000" stroke="none" 
	d="
M344.188660,312.256409 
	C347.730743,309.446564 351.086456,306.974548 354.225403,304.252625 
	C360.862854,298.496918 364.670563,291.383972 363.949524,282.350342 
	C363.682678,279.007324 364.669006,276.636963 368.332428,276.552765 
	C371.013580,276.491089 373.381592,277.328461 373.099426,280.808533 
	C372.141296,292.624786 378.347687,300.633392 387.121124,307.298950 
	C389.770599,309.311920 392.377716,311.380768 395.003876,313.424438 
	C397.633942,315.471191 397.798584,317.906036 395.743866,320.330811 
	C393.695679,322.747955 391.326691,322.227356 389.170166,320.365631 
	C385.011963,316.775909 380.943848,313.081482 376.775330,309.503967 
	C370.252869,303.906311 367.141876,303.950623 360.789703,309.545135 
	C357.041779,312.846008 353.258636,316.106934 349.507263,319.403961 
	C346.676636,321.891724 343.415039,324.827148 340.171753,320.911835 
	C336.547607,316.536835 341.130524,314.652802 344.188660,312.256409 
z"/>
<path fill="#0AA4EB" opacity="1.000000" stroke="none" 
	d="
M382.220886,437.988770 
	C384.770996,438.749115 386.999359,439.479156 389.256836,439.584198 
	C393.738647,439.792786 398.277191,439.310272 402.708008,439.830750 
	C404.526917,440.044373 406.127777,442.114075 407.827881,443.339478 
	C406.152985,444.821686 404.500610,447.561676 402.799713,447.592133 
	C385.173065,447.907593 367.538605,447.804138 349.906403,447.768860 
	C347.017792,447.763092 344.608948,446.283447 345.317291,443.334412 
	C345.682892,441.812378 348.345123,439.994537 350.118378,439.819855 
	C355.061584,439.332886 360.082489,439.629822 365.072693,439.626068 
	C369.811279,439.622498 372.045349,437.196625 372.007355,432.523102 
	C371.987061,430.028168 372.024048,427.532806 372.012421,425.037750 
	C371.998657,422.077484 373.525330,420.936249 376.397614,420.953491 
	C379.240906,420.970581 379.994049,422.448975 380.221771,425.010590 
	C380.598541,429.248962 381.330231,433.455750 382.220886,437.988770 
z"/>
<path fill="#059B48" opacity="1.000000" stroke="none" 
	d="
M225.999268,215.953415 
	C219.679077,215.953156 213.858337,215.992355 208.038345,215.941940 
	C201.751663,215.887482 198.671555,213.112900 198.570526,206.975922 
	C198.414474,197.499557 198.539536,188.018707 198.521423,178.539810 
	C198.515533,175.456482 199.840302,172.798615 202.962646,173.356354 
	C204.571381,173.643738 206.716461,176.597580 206.847610,178.470581 
	C207.322678,185.256027 206.911240,192.097641 207.092834,198.911163 
	C207.285507,206.139648 209.248810,207.931946 216.512924,207.969315 
	C224.827591,208.012100 233.142868,208.016846 241.457397,207.964081 
	C244.499237,207.944763 246.983566,208.785965 246.833572,212.254593 
	C246.696884,215.415344 244.296356,216.055618 241.464981,215.986252 
	C236.479050,215.864136 231.487961,215.952942 225.999268,215.953415 
z"/>
<path fill="#0AA4EB" opacity="1.000000" stroke="none" 
	d="
M446.408569,369.122009 
	C447.360046,373.160339 450.013763,374.142761 453.281006,374.171906 
	C461.110321,374.241760 468.940002,374.276550 476.769440,374.332764 
	C478.101288,374.342316 479.748810,373.906067 480.693054,374.525482 
	C482.242706,375.541992 483.335785,377.254486 484.621399,378.673462 
	C483.285858,379.858612 481.970367,382.044891 480.611572,382.072144 
	C468.623230,382.312592 456.624786,382.298431 444.634460,382.079559 
	C439.432007,381.984619 437.413361,378.156494 437.269958,373.643036 
	C437.000305,365.153809 437.140717,356.649780 437.206726,348.152649 
	C437.227600,345.462708 438.031555,343.002960 441.344055,343.041534 
	C444.591675,343.079315 446.029724,345.035858 446.043488,348.237366 
	C446.072876,355.064667 446.177643,361.891632 446.408569,369.122009 
z"/>
<path fill="#07A4EB" opacity="1.000000" stroke="none" 
	d="
M337.565491,350.717834 
	C335.502991,345.987793 336.540833,344.040436 340.959290,343.925720 
	C345.784180,343.800385 350.615997,343.959961 355.442566,343.873169 
	C361.259705,343.768585 362.840973,342.178680 363.007660,336.450073 
	C363.075409,334.121002 362.492432,331.600586 363.213684,329.516052 
	C363.821259,327.760040 365.653961,325.715088 367.361389,325.211243 
	C370.282745,324.349152 371.408997,326.825195 371.608093,329.370789 
	C371.815369,332.020782 371.794830,334.691681 371.800934,337.353638 
	C371.811554,341.996613 374.341309,343.900848 378.728516,343.891113 
	C383.723083,343.880035 388.719299,343.971527 393.711670,343.867004 
	C396.618683,343.806122 399.158020,344.744385 398.632324,347.815948 
	C398.361603,349.397888 395.699432,351.722137 394.088043,351.746552 
	C376.111969,352.019104 358.130066,351.918945 340.149902,351.861115 
	C339.389771,351.858673 338.631500,351.288177 337.565491,350.717834 
z"/>
<path fill="#04A2EA" opacity="1.000000" stroke="none" 
	d="
M484.314819,311.744385 
	C484.158234,319.491638 484.030212,326.806915 484.099182,334.120331 
	C484.128967,337.273529 483.068665,339.521210 479.757965,339.515869 
	C476.588623,339.510742 475.843201,337.201080 475.852539,334.332153 
	C475.911560,316.207458 475.900421,298.082458 475.864899,279.957642 
	C475.859772,277.340485 476.401764,275.177612 479.481293,275.103180 
	C482.517548,275.029755 484.032532,276.775085 484.049622,279.787140 
	C484.073242,283.944092 484.086792,288.101318 484.065582,292.258209 
	C484.042297,296.821625 485.737152,299.576965 490.846344,299.194672 
	C493.159119,299.021637 495.680786,298.677002 497.767944,299.396179 
	C499.418304,299.964783 500.549805,302.039093 501.911743,303.444763 
	C500.491272,304.779602 499.266846,306.830841 497.605499,307.285461 
	C494.951843,308.011627 491.911652,307.279724 489.220764,307.931610 
	C487.452393,308.359985 486.011017,310.138031 484.314819,311.744385 
z"/>
<path fill="#059B48" opacity="1.000000" stroke="none" 
	d="
M250.576721,139.979202 
	C254.238525,140.112320 255.893326,142.057358 254.889938,144.860489 
	C254.387222,146.264816 251.900009,147.670654 250.209961,147.803986 
	C245.242249,148.195938 240.223724,148.000702 235.226227,147.941010 
	C230.974411,147.890244 228.658859,149.854019 228.490875,154.139221 
	C228.366974,157.299408 228.824799,160.581879 228.088135,163.580078 
	C227.667221,165.293198 225.373520,166.546143 223.923035,168.006287 
	C222.639099,166.544189 220.598511,165.245636 220.239365,163.583694 
	C219.619598,160.715973 220.071259,157.621964 220.025543,154.623627 
	C219.958221,150.207397 217.909409,147.837570 213.269196,147.928680 
	C208.439423,148.023514 203.605835,147.904602 198.774765,147.957520 
	C195.755096,147.990585 192.753433,147.906067 192.879089,143.808975 
	C192.992584,140.108917 195.803040,139.960876 198.638199,139.964737 
	C215.798981,139.988113 232.959793,139.976562 250.576721,139.979202 
z"/>
<path fill="#089E4A" opacity="1.000000" stroke="none" 
	d="
M227.999268,293.017426 
	C221.669235,293.016144 215.837524,293.093872 210.009064,292.989746 
	C204.941452,292.899261 201.726044,290.138519 201.574097,285.118988 
	C201.302048,276.132324 201.427017,267.132172 201.478806,258.138184 
	C201.494049,255.492645 202.708694,253.141663 205.641907,254.035217 
	C207.355545,254.557251 209.641647,256.700317 209.777023,258.276672 
	C210.274078,264.064545 209.918304,269.921265 209.997223,275.750519 
	C210.094009,282.898529 212.184982,284.949402 219.248779,284.970825 
	C226.911392,284.994080 234.574509,285.021942 242.236618,284.955963 
	C245.396408,284.928772 248.724609,284.881775 248.659775,289.138885 
	C248.600662,293.019073 245.517670,293.114716 242.491119,293.044922 
	C237.829361,292.937439 233.163269,293.017151 227.999268,293.017426 
z"/>
<path fill="#039B47" opacity="1.000000" stroke="none" 
	d="
M240.169800,84.199738 
	C244.716293,85.852577 246.263443,88.834862 246.177750,93.228363 
	C245.989365,102.884605 246.039017,112.548103 246.164764,122.206383 
	C246.206863,125.439041 245.044174,127.523460 241.772446,127.508743 
	C238.628754,127.494614 237.781219,125.317780 237.840134,122.376404 
	C237.973511,115.717102 237.931976,109.052704 237.864151,102.391365 
	C237.778290,93.956589 235.853867,92.055420 227.575668,92.038681 
	C220.580566,92.024544 213.585419,92.022736 206.590347,92.039925 
	C203.759506,92.046883 201.068298,91.841408 200.908646,88.105721 
	C200.743820,84.249413 203.365753,84.006485 206.275345,84.023254 
	C217.433319,84.087532 228.591644,84.090805 240.169800,84.199738 
z"/>
<path fill="#12A151" opacity="1.000000" stroke="none" 
	d="
M90.881927,215.991348 
	C90.880760,220.143875 90.818344,223.799622 90.897758,227.452271 
	C90.961670,230.391556 89.658463,232.864334 86.816864,232.398743 
	C85.094902,232.116608 82.496315,229.408997 82.468506,227.754501 
	C82.158745,209.321579 82.178757,190.880096 82.449669,172.445923 
	C82.472160,170.915268 84.765366,168.436035 86.353111,168.112381 
	C89.779030,167.414047 90.848343,170.179810 90.860268,173.135361 
	C90.906494,184.596741 90.880882,196.058411 90.881912,207.519974 
	C90.882149,210.177719 90.881935,212.835480 90.881927,215.991348 
z"/>
<path fill="#059B48" opacity="1.000000" stroke="none" 
	d="
M169.053955,198.000000 
	C169.054642,189.515030 169.070847,181.530014 169.047653,173.545120 
	C169.039459,170.724808 169.117157,168.046402 172.968658,167.941284 
	C176.661880,167.840500 177.363586,170.224335 177.364410,173.188248 
	C177.369461,191.320770 177.340942,209.453384 177.395935,227.585754 
	C177.405014,230.581482 176.256622,232.620773 173.201950,232.533142 
	C170.245468,232.448334 169.005478,230.441742 169.028870,227.445282 
	C169.104202,217.797394 169.055084,208.148499 169.053955,198.000000 
z"/>
<path fill="#059D49" opacity="1.000000" stroke="none" 
	d="
M259.389954,166.368286 
	C261.308838,165.313019 263.029022,164.036179 264.760223,164.021072 
	C281.913818,163.871307 299.069489,163.973557 316.223999,163.890350 
	C319.298828,163.875443 321.801910,164.609039 321.710693,168.011276 
	C321.620697,171.365662 319.079895,171.998520 316.028076,171.981140 
	C298.873688,171.883392 281.718384,171.899796 264.563660,171.961334 
	C260.899078,171.974472 258.777863,170.743988 259.389954,166.368286 
z"/>
<path fill="#019A45" opacity="1.000000" stroke="none" 
	d="
M244.896027,240.371063 
	C229.127518,240.371170 213.846893,240.376495 198.566284,240.362579 
	C197.075424,240.361221 195.335403,240.697617 194.159851,240.055557 
	C192.827347,239.327774 191.165543,237.658493 191.188248,236.426987 
	C191.211105,235.187927 193.084259,233.939011 194.247299,232.796967 
	C194.526047,232.523254 195.203751,232.608749 195.698013,232.608475 
	C213.303879,232.598663 230.909744,232.595871 248.515610,232.606064 
	C249.173950,232.606445 250.107010,232.497513 250.440186,232.866074 
	C251.538010,234.080521 253.069092,235.444748 253.168991,236.841904 
	C253.243668,237.886337 251.561569,239.542007 250.303314,240.067825 
	C248.871368,240.666214 247.041061,240.311386 244.896027,240.371063 
z"/>
<path fill="#413F3E" opacity="1.000000" stroke="none" 
	d="
M141.494354,33.516869 
	C140.153778,30.985828 139.094025,28.692797 138.104645,26.369799 
	C137.279083,24.431446 136.535950,22.457979 135.562683,20.013803 
	C137.740677,19.890173 139.323715,20.131819 140.619690,19.630857 
	C141.845856,19.156879 142.870041,17.993164 143.798416,16.965931 
	C144.628723,16.047207 145.207199,14.900889 145.896790,13.854995 
	C146.618759,14.920943 147.424561,15.942290 148.025787,17.072474 
	C148.307892,17.602741 148.195679,18.342773 148.290649,19.264233 
	C149.480713,19.427305 150.592300,19.512196 151.672195,19.744480 
	C153.056458,20.042234 154.415237,20.458576 155.784988,20.823822 
	C155.066376,21.908365 154.239380,22.939829 153.671982,24.098421 
	C153.358780,24.737989 153.657013,25.664818 153.375504,26.334270 
	C152.347626,28.778542 151.232513,31.188854 150.069534,33.572586 
	C149.335709,35.076714 148.458313,36.510807 147.036835,39.073154 
	C150.558899,39.073154 152.545883,38.841702 154.437622,39.166016 
	C155.458557,39.341042 156.316559,40.466660 157.248062,41.163410 
	C156.322418,41.846401 155.415848,43.087917 154.467987,43.120281 
	C148.977921,43.307732 143.475006,43.304535 137.984375,43.124393 
	C136.965866,43.090981 135.983475,41.956013 134.984421,41.329445 
	C136.055573,40.577236 137.033829,39.538548 138.223770,39.152637 
	C139.436447,38.759357 141.172363,39.496616 142.126282,38.881485 
	C144.687027,37.230209 144.737274,35.282139 141.494354,33.516869 
M149.375656,27.362392 
	C148.062256,26.227695 146.882889,24.545870 145.381607,24.178118 
	C144.573166,23.980076 142.641876,25.878160 142.301712,27.126108 
	C142.072983,27.965237 143.808899,30.296461 144.550110,30.246408 
	C146.145844,30.138649 147.666901,28.924885 149.375656,27.362392 
z"/>
<path fill="#403E3D" opacity="1.000000" stroke="none" 
	d="
M252.192291,22.264744 
	C249.774261,22.337984 247.605286,21.880587 245.829987,22.518599 
	C244.363968,23.045460 242.655365,24.700758 242.312988,26.152819 
	C241.711609,28.703411 243.331894,30.122168 246.113770,29.950909 
	C247.773102,29.848761 249.472321,29.749247 251.099854,29.998941 
	C252.221359,30.170998 253.250732,30.943405 254.321289,31.447510 
	C253.349197,32.293053 252.481003,33.338497 251.369659,33.916058 
	C250.587982,34.322285 249.475540,34.092010 248.519302,34.145473 
	C247.340927,38.366161 249.265320,39.224804 252.821106,39.191120 
	C254.237518,39.177696 255.666550,40.497372 257.089844,41.210175 
	C255.653351,41.872829 254.241837,43.033287 252.775787,43.106838 
	C247.957504,43.348572 243.113907,43.319397 238.293076,43.103382 
	C237.168182,43.052979 236.094742,41.853931 234.997635,41.183372 
	C236.095886,40.480648 237.139679,39.302258 238.303116,39.169102 
	C241.183502,38.839451 244.889709,39.983955 243.799820,35.040771 
	C241.827332,33.899319 238.623367,33.085663 238.334869,31.675526 
	C237.586716,28.018709 237.981354,24.088737 238.267899,20.294075 
	C238.322617,19.569258 239.936813,18.459387 240.890564,18.394461 
	C244.537247,18.146215 248.248123,17.912004 251.856598,18.337603 
	C254.543640,18.654524 255.268204,20.339678 252.192291,22.264744 
z"/>
<path fill="#464443" opacity="1.000000" stroke="none" 
	d="
M296.701569,42.757515 
	C300.062683,40.094410 300.062683,40.094410 301.833160,45.683968 
	C303.542999,45.683968 305.321411,45.683968 306.566467,45.683968 
	C308.046906,43.679165 309.292175,41.992805 310.537445,40.306442 
	C311.307587,42.460476 312.089844,44.610340 312.833801,46.773392 
	C312.936035,47.070621 312.847809,47.433334 312.847870,47.765728 
	C312.850555,58.560802 310.594330,60.483601 299.854034,58.164463 
	C298.552216,57.883366 296.963043,55.630856 296.778442,54.135090 
	C296.333954,50.534470 296.643951,46.840721 296.701569,42.757515 
M301.768219,53.952484 
	C303.710266,53.952484 305.652313,53.952484 307.594360,53.952484 
	C307.923187,53.489613 308.252014,53.026741 308.580841,52.563869 
	C307.389130,51.571201 306.326263,50.015503 304.977997,49.706985 
	C302.433533,49.124760 300.191010,49.748802 301.768219,53.952484 
z"/>
<path fill="#42403F" opacity="1.000000" stroke="none" 
	d="
M227.181702,40.022915 
	C227.883118,43.553467 228.971146,47.064491 229.150818,50.621399 
	C229.271667,53.014050 228.461411,57.380234 227.457123,57.566212 
	C223.340637,58.328514 218.979309,57.962009 214.737305,57.633633 
	C214.137451,57.587200 213.336456,55.481750 213.255981,54.287060 
	C213.044617,51.149128 212.988602,47.971027 213.264450,44.843658 
	C213.385849,43.467251 214.463013,42.175144 215.106216,40.844757 
	C216.030487,41.955284 216.984543,43.043018 217.861572,44.189682 
	C218.139099,44.552547 218.210846,45.072811 218.305618,45.328835 
	C224.139633,48.515774 224.375763,42.807156 227.042297,40.187130 
	C227.428665,40.000629 227.181702,40.022915 227.181702,40.022915 
M224.654922,50.224007 
	C222.901886,49.995625 221.042984,49.335304 219.442108,49.727688 
	C218.682922,49.913765 218.416519,52.110298 217.926849,53.396011 
	C219.635727,53.654057 221.407440,54.283924 223.026443,54.010269 
	C223.813141,53.877296 224.314148,52.054050 224.654922,50.224007 
z"/>
<path fill="#413F3E" opacity="1.000000" stroke="none" 
	d="
M296.793945,34.980751 
	C290.111267,34.275795 288.204529,32.187378 288.348236,26.193554 
	C288.362671,25.591223 288.600983,24.843224 288.332947,24.414278 
	C287.611328,23.259413 286.671967,22.240639 285.819031,21.167843 
	C287.463135,20.760174 289.099640,20.317051 290.754700,19.960331 
	C291.540039,19.791067 292.360962,19.786736 292.453857,19.777609 
	C293.823792,17.528553 294.902710,15.757195 295.981659,13.985832 
	C296.963959,15.608435 297.946289,17.231041 299.473755,19.754194 
	C299.644623,19.765133 301.105194,19.708458 302.495667,19.993645 
	C303.676056,20.235741 304.775482,20.872459 305.910736,21.334566 
	C305.257904,22.254406 304.529572,23.131950 303.981506,24.110453 
	C303.668579,24.669121 303.433563,25.427120 303.531830,26.035908 
	C304.353271,31.125486 301.889008,33.819134 296.793945,34.980751 
M294.958984,24.150106 
	C294.109894,25.668594 292.795654,27.141251 292.639252,28.727997 
	C292.576202,29.367985 295.031616,30.809196 296.370300,30.847124 
	C297.322296,30.874096 299.310822,28.668108 299.132874,28.313425 
	C298.338348,26.729549 296.931732,25.452732 294.958984,24.150106 
z"/>
<path fill="#403E3D" opacity="1.000000" stroke="none" 
	d="
M219.979172,23.614124 
	C219.557220,24.569160 218.731598,25.545387 218.780426,26.475716 
	C219.048050,31.574429 215.859146,35.107090 210.849808,35.003117 
	C206.087387,34.904270 202.901550,31.368250 203.278809,26.584837 
	C203.338226,25.831614 203.777283,24.907040 203.481750,24.368481 
	C202.841049,23.200903 201.838562,22.231867 200.984024,21.181648 
	C202.624084,20.770306 204.255646,20.319420 205.907913,19.964981 
	C206.685959,19.798077 207.503723,19.816477 207.613449,19.807482 
	C208.963730,17.531099 210.013199,15.761836 211.062668,13.992573 
	C212.088364,15.589791 213.114044,17.187010 214.759720,19.749672 
	C215.380737,19.790812 217.294662,19.917597 219.593201,20.571144 
	C219.978287,21.936646 219.978729,22.775385 219.979172,23.614124 
M213.382111,24.942486 
	C211.547791,25.248661 209.629028,25.348770 207.950958,26.036303 
	C207.618576,26.172487 207.732834,29.168369 208.492569,29.769567 
	C209.530838,30.591185 212.319641,31.034454 212.702454,30.485466 
	C213.623047,29.165234 213.579758,27.172882 213.382111,24.942486 
z"/>
<path fill="#42403F" opacity="1.000000" stroke="none" 
	d="
M171.077667,33.920002 
	C167.391449,32.639885 168.289978,31.113203 170.425751,29.379545 
	C172.406158,27.772011 174.281403,26.034950 176.193985,24.362751 
	C175.490417,23.577486 175.338654,23.257988 175.098511,23.163782 
	C173.147842,22.398561 171.180634,21.675539 169.218460,20.939661 
	C171.269516,20.190889 173.269531,19.089216 175.384644,18.783319 
	C177.985413,18.407187 180.706421,18.483408 183.327454,18.783436 
	C184.677368,18.937960 185.923187,20.001854 187.216034,20.654839 
	C186.017120,21.439116 184.875000,22.340593 183.596252,22.960068 
	C182.919098,23.288099 182.004440,23.125879 179.448242,23.312994 
	C182.447906,26.043905 184.570694,27.821989 186.482910,29.803280 
	C187.130341,30.474104 187.245407,31.658758 187.603760,32.608604 
	C186.458054,32.783123 184.613342,33.495140 184.271973,33.051193 
	C179.476547,26.814615 175.459183,30.059706 171.077667,33.920002 
z"/>
<path fill="#403E3D" opacity="1.000000" stroke="none" 
	d="
M275.148956,25.718052 
	C276.960144,27.221901 278.726959,28.264778 280.037018,29.719095 
	C280.685181,30.438652 280.491913,31.916180 280.679352,33.050766 
	C279.633636,33.048500 278.555450,33.198223 277.554932,32.984409 
	C276.995056,32.864758 276.497711,32.195618 276.085632,31.682888 
	C273.395477,28.335453 270.709290,28.196856 267.920837,31.572115 
	C267.397675,32.205383 266.760406,33.028461 266.058960,33.165394 
	C264.939728,33.383896 263.722504,33.100422 262.546692,33.029194 
	C262.883148,31.945162 262.910797,30.561064 263.615997,29.835348 
	C265.469910,27.927528 267.618683,26.306234 269.653656,24.567680 
	C268.785126,23.588472 268.632263,23.282944 268.388000,23.162046 
	C266.583221,22.268776 264.760284,21.412275 262.943024,20.544216 
	C264.771515,19.930599 266.565308,18.970409 268.436493,18.782871 
	C271.400787,18.485781 274.430969,18.537966 277.404358,18.787056 
	C278.644928,18.890982 279.811432,19.879261 281.011597,20.465435 
	C279.870758,21.310434 278.791412,22.261459 277.570831,22.968918 
	C276.473846,23.604761 273.079712,21.613354 275.148956,25.718052 
z"/>
<path fill="#42403F" opacity="1.000000" stroke="none" 
	d="
M248.947723,46.954666 
	C254.008087,49.882698 255.660400,54.115314 253.631119,58.085350 
	C251.918015,61.436848 246.728653,63.178951 242.734085,61.743565 
	C238.733063,60.305862 236.729019,56.370384 237.837814,52.128376 
	C238.950287,47.872292 243.000443,45.891762 248.947723,46.954666 
M247.788910,50.878082 
	C246.011490,51.319923 243.972504,51.387928 242.571716,52.368046 
	C241.913452,52.828659 241.929611,55.519363 242.637192,56.345078 
	C243.520096,57.375423 245.483810,58.077267 246.887512,57.943226 
	C250.129181,57.633675 250.653748,55.026150 247.788910,50.878082 
z"/>
<path fill="#464443" opacity="1.000000" stroke="none" 
	d="
M220.410706,23.492821 
	C219.978729,22.775385 219.978287,21.936646 219.975647,20.783363 
	C221.860886,20.266088 223.748337,20.063354 225.815216,19.841345 
	C225.944992,18.522469 225.768005,17.261972 226.246887,16.343393 
	C226.695862,15.482152 227.779663,14.607117 228.698227,14.462377 
	C229.265472,14.372998 230.632309,15.630801 230.640900,16.296679 
	C230.732162,23.379250 230.689407,30.466608 230.453583,37.544991 
	C230.432846,38.167004 228.786774,38.734867 227.538666,39.675400 
	C227.181702,40.022915 227.428665,40.000629 227.461029,40.021492 
	C226.834152,37.721401 226.174911,35.400444 225.498550,33.019218 
	C224.164215,32.248055 222.606644,31.347870 221.049072,30.447681 
	C222.466232,29.392433 223.883392,28.337193 226.026352,26.741522 
	C227.338333,22.648815 222.578125,24.673891 220.410706,23.492821 
z"/>
<path fill="#42403F" opacity="1.000000" stroke="none" 
	d="
M100.668488,29.946144 
	C104.542953,26.995020 108.155838,24.365040 108.150330,19.122288 
	C108.149605,18.430248 109.592468,17.166512 110.321976,17.198204 
	C111.111084,17.232483 112.516815,18.493076 112.498405,19.188221 
	C112.380424,23.644987 115.400810,25.914032 118.206856,28.539188 
	C119.091011,29.366352 119.046310,31.186369 119.426727,32.551971 
	C118.111214,32.330299 116.170441,32.583935 115.581848,31.809671 
	C111.811707,26.850170 108.635330,28.080675 104.872581,31.934992 
	C102.425575,34.441536 101.209496,33.759125 100.668488,29.946144 
z"/>
<path fill="#464443" opacity="1.000000" stroke="none" 
	d="
M313.476501,18.914436 
	C313.422577,22.083992 313.243408,24.800655 317.410767,24.606577 
	C318.196960,24.569962 319.046448,25.892410 319.866730,26.587742 
	C319.058014,27.282036 318.205627,28.616068 317.447876,28.564360 
	C313.266022,28.278986 313.680054,30.975798 313.432404,33.744122 
	C313.269257,35.567692 312.134766,37.304356 311.435242,39.079926 
	C310.637543,37.221561 309.288879,35.402905 309.151550,33.496960 
	C308.817657,28.863483 308.962280,24.186640 309.117584,19.534050 
	C309.149658,18.572243 310.064667,17.639900 310.572754,16.693972 
	C311.529572,17.300980 312.486359,17.907993 313.476501,18.914436 
z"/>
<path fill="#42403F" opacity="1.000000" stroke="none" 
	d="
M260.799133,40.895794 
	C263.404327,39.780994 265.949921,39.095917 268.065063,38.526676 
	C269.443176,36.658199 270.745483,34.892445 272.047821,33.126694 
	C272.999451,34.813374 273.951111,36.500050 275.416229,39.096821 
	C276.551361,39.096821 278.676239,38.890987 280.724274,39.197979 
	C281.545166,39.321026 282.343719,40.490353 282.830933,41.362946 
	C282.966400,41.605545 281.950165,43.004528 281.465027,43.002995 
	C274.743530,42.981689 268.022186,42.820202 261.303101,42.616673 
	C261.102386,42.610588 260.926819,41.774578 260.799133,40.895794 
z"/>
<path fill="#403E3D" opacity="1.000000" stroke="none" 
	d="
M193.005966,35.689796 
	C193.003555,32.950958 193.003555,30.662638 193.003555,28.166950 
	C191.516983,28.010361 190.295395,28.142334 189.333755,27.704006 
	C188.446640,27.299644 187.838516,26.283213 187.107498,25.536373 
	C187.842957,24.989508 188.607773,23.940548 189.308853,23.981535 
	C192.575790,24.172522 193.079315,22.458807 193.148087,19.703648 
	C193.171951,18.747749 194.773056,17.831223 195.653763,16.896717 
	C196.212723,17.916454 197.222382,18.922091 197.254807,19.958305 
	C197.420120,25.240944 197.442123,30.535519 197.247330,35.816067 
	C197.205261,36.956406 196.064133,38.056202 195.429276,39.174679 
	C194.622299,38.163227 193.815338,37.151772 193.005966,35.689796 
z"/>
<path fill="#413F3E" opacity="1.000000" stroke="none" 
	d="
M127.144165,30.427948 
	C127.062538,32.872272 127.247322,34.905552 126.919014,36.852306 
	C126.780251,37.675106 125.561676,38.315807 124.833916,39.039280 
	C124.188805,38.257614 123.007179,37.491253 122.984375,36.691837 
	C122.818222,30.866650 122.789894,25.031748 122.977379,19.208267 
	C123.006729,18.296762 124.352028,17.427624 125.088829,16.538897 
	C125.746284,17.508848 126.692093,18.398767 126.989082,19.468771 
	C127.370621,20.843424 127.231140,22.362684 127.317619,23.845427 
	C128.266708,24.096092 128.958572,24.145798 129.508713,24.450975 
	C130.771698,25.151577 131.965607,25.976685 133.187561,26.751251 
	C132.022400,27.406977 130.864243,28.075602 129.689651,28.713997 
	C128.872498,29.158138 128.032761,29.560755 127.144165,30.427948 
z"/>
<path fill="#403E3D" opacity="1.000000" stroke="none" 
	d="
M185.145737,45.003796 
	C183.708237,44.999142 182.602768,45.265339 181.753784,44.913185 
	C180.920517,44.567558 180.347977,43.593342 179.661026,42.894989 
	C180.314972,42.285633 180.947586,41.178547 181.626434,41.149422 
	C185.425415,40.986450 189.262512,40.836052 193.025238,41.245338 
	C194.134918,41.366047 195.728775,43.219975 195.909973,44.454399 
	C196.338150,47.371429 196.224731,50.409519 195.952072,53.363739 
	C195.864883,54.308315 194.589539,55.143242 193.857819,56.028343 
	C193.162003,55.087955 192.353897,54.206436 191.817078,53.182659 
	C191.543320,52.660587 191.686356,51.875038 191.761139,51.222347 
	C192.294937,46.563419 190.525360,44.220840 185.145737,45.003796 
z"/>
<path fill="#504E4E" opacity="1.000000" stroke="none" 
	d="
M159.619644,37.158508 
	C159.452606,31.438349 159.236710,26.126074 159.483261,20.835348 
	C159.546738,19.473011 161.065323,18.178486 161.915466,16.852814 
	C162.609833,18.114637 163.842209,19.351038 163.903244,20.642786 
	C164.137817,25.606663 164.103333,30.591410 163.956818,35.562111 
	C163.867386,38.596386 163.105103,41.016232 159.619644,37.158508 
z"/>
<path fill="#F9FDFF" opacity="1.000000" stroke="none" 
	d="
M266.757507,400.181580 
	C270.248108,403.805450 270.618439,407.559937 267.588074,411.050568 
	C264.808105,414.252747 261.126282,415.055542 257.327789,412.674072 
	C253.839340,410.487000 252.513794,407.320374 253.973923,403.298431 
	C255.632919,398.728699 260.548523,397.434326 266.757507,400.181580 
z"/>
<path fill="#F9FDFF" opacity="1.000000" stroke="none" 
	d="
M313.853027,459.629700 
	C314.078888,466.931976 310.563080,470.906250 304.586700,470.608948 
	C299.032166,470.332672 295.179932,465.933228 296.014984,460.667511 
	C296.667358,456.553589 299.304108,454.268921 303.307861,453.652588 
	C308.121552,452.911682 311.706848,454.692871 313.853027,459.629700 
z"/>
<path fill="#FCFEFF" opacity="1.000000" stroke="none" 
	d="
M448.424438,305.070221 
	C447.683807,313.971344 442.470642,318.964294 434.771301,318.608368 
	C426.910370,318.244934 421.785553,312.897827 421.914276,305.193695 
	C422.027802,298.398987 426.899475,293.313690 433.654755,292.938354 
	C442.421692,292.451263 447.210938,296.250519 448.424438,305.070221 
z"/>
<path fill="#FCFEFF" opacity="1.000000" stroke="none" 
	d="
M362.460999,486.148560 
	C361.369781,480.076233 362.602966,475.128448 367.562866,471.707062 
	C372.801239,468.093597 378.460541,467.806885 384.130157,470.524475 
	C389.814178,473.249054 392.298645,479.297089 390.907501,486.232208 
	C389.818024,491.663300 384.657562,495.791962 378.625488,496.058533 
	C369.909668,496.443695 365.240417,493.665466 362.460999,486.148560 
z"/>
<path fill="#F1F0F0" opacity="1.000000" stroke="none" 
	d="
M149.297089,27.763084 
	C147.666901,28.924885 146.145844,30.138649 144.550110,30.246408 
	C143.808899,30.296461 142.072983,27.965237 142.301712,27.126108 
	C142.641876,25.878160 144.573166,23.980076 145.381607,24.178118 
	C146.882889,24.545870 148.062256,26.227695 149.297089,27.763084 
z"/>
<path fill="#FEFFFF" opacity="1.000000" stroke="none" 
	d="
M301.436157,53.630966 
	C300.191010,49.748802 302.433533,49.124760 304.977997,49.706985 
	C306.326263,50.015503 307.389130,51.571201 308.580841,52.563869 
	C308.252014,53.026741 307.923187,53.489613 307.594360,53.952484 
	C305.652313,53.952484 303.710266,53.952484 301.436157,53.630966 
z"/>
<path fill="#F1F0F0" opacity="1.000000" stroke="none" 
	d="
M224.799698,50.610001 
	C224.314148,52.054050 223.813141,53.877296 223.026443,54.010269 
	C221.407440,54.283924 219.635727,53.654057 217.926849,53.396015 
	C218.416519,52.110298 218.682922,49.913765 219.442108,49.727688 
	C221.042984,49.335304 222.901886,49.995625 224.799698,50.610001 
z"/>
<path fill="#F1F0F0" opacity="1.000000" stroke="none" 
	d="
M295.352600,24.107555 
	C296.931732,25.452732 298.338348,26.729549 299.132874,28.313425 
	C299.310822,28.668108 297.322296,30.874096 296.370300,30.847124 
	C295.031616,30.809196 292.576202,29.367985 292.639252,28.727997 
	C292.795654,27.141251 294.109894,25.668594 295.352600,24.107555 
z"/>
<path fill="#F1F0F0" opacity="1.000000" stroke="none" 
	d="
M213.653717,25.197079 
	C213.579758,27.172882 213.623047,29.165234 212.702454,30.485466 
	C212.319641,31.034454 209.530838,30.591185 208.492569,29.769567 
	C207.732834,29.168369 207.618576,26.172487 207.950958,26.036303 
	C209.629028,25.348770 211.547791,25.248661 213.653717,25.197079 
z"/>
<path fill="#F1F0F0" opacity="1.000000" stroke="none" 
	d="
M248.140030,51.020351 
	C250.653748,55.026150 250.129181,57.633675 246.887512,57.943226 
	C245.483810,58.077267 243.520096,57.375423 242.637192,56.345078 
	C241.929611,55.519363 241.913452,52.828659 242.571716,52.368046 
	C243.972504,51.387928 246.011490,51.319923 248.140030,51.020351 
z"/>
</svg>